<svg width="383" height="67" viewBox="0 0 383 67" fill="none" xmlns="http://www.w3.org/2000/svg">
<path d="M120.212 28.176H126.876C127.828 28.176 128.743 28.2693 129.62 28.456C130.516 28.6427 131.3 28.96 131.972 29.408C132.644 29.8373 133.176 30.4253 133.568 31.172C133.979 31.9 134.184 32.8147 134.184 33.916C134.184 35.1667 133.969 36.1747 133.54 36.94C133.111 37.7053 132.532 38.3027 131.804 38.732C131.076 39.1427 130.227 39.4227 129.256 39.572C128.304 39.7213 127.305 39.796 126.26 39.796H123.74V48H120.212V28.176ZM125.868 36.772C126.372 36.772 126.895 36.7533 127.436 36.716C127.977 36.6787 128.472 36.5667 128.92 36.38C129.387 36.1933 129.76 35.9133 130.04 35.54C130.339 35.1667 130.488 34.644 130.488 33.972C130.488 33.356 130.357 32.8707 130.096 32.516C129.835 32.1427 129.499 31.8627 129.088 31.676C128.677 31.4707 128.22 31.34 127.716 31.284C127.212 31.228 126.727 31.2 126.26 31.2H123.74V36.772H125.868ZM139.709 42.456C139.821 43.464 140.213 44.248 140.885 44.808C141.557 45.368 142.369 45.648 143.321 45.648C144.161 45.648 144.861 45.48 145.421 45.144C146 44.7893 146.504 44.3507 146.933 43.828L149.341 45.648C148.557 46.6187 147.68 47.3093 146.709 47.72C145.739 48.1307 144.721 48.336 143.657 48.336C142.649 48.336 141.697 48.168 140.801 47.832C139.905 47.496 139.131 47.02 138.477 46.404C137.824 45.788 137.301 45.0507 136.909 44.192C136.536 43.3147 136.349 42.344 136.349 41.28C136.349 40.216 136.536 39.2547 136.909 38.396C137.301 37.5187 137.824 36.772 138.477 36.156C139.131 35.54 139.905 35.064 140.801 34.728C141.697 34.392 142.649 34.224 143.657 34.224C144.591 34.224 145.44 34.392 146.205 34.728C146.989 35.0453 147.652 35.512 148.193 36.128C148.753 36.744 149.183 37.5093 149.481 38.424C149.799 39.32 149.957 40.356 149.957 41.532V42.456H139.709ZM146.597 39.936C146.579 38.928 146.271 38.144 145.673 37.584C145.076 37.024 144.245 36.744 143.181 36.744C142.173 36.744 141.371 37.0333 140.773 37.612C140.195 38.1907 139.84 38.9653 139.709 39.936H146.597ZM163.739 45.984H163.683C163.198 46.824 162.545 47.4307 161.723 47.804C160.902 48.1587 160.015 48.336 159.063 48.336C158.018 48.336 157.085 48.1587 156.263 47.804C155.461 47.4307 154.77 46.9267 154.191 46.292C153.613 45.6573 153.174 44.9107 152.875 44.052C152.577 43.1933 152.427 42.2693 152.427 41.28C152.427 40.2907 152.586 39.3667 152.903 38.508C153.221 37.6493 153.659 36.9027 154.219 36.268C154.798 35.6333 155.489 35.1387 156.291 34.784C157.094 34.4107 157.971 34.224 158.923 34.224C159.539 34.224 160.09 34.2893 160.575 34.42C161.079 34.5507 161.518 34.7187 161.891 34.924C162.265 35.1293 162.582 35.3533 162.843 35.596C163.105 35.82 163.319 36.044 163.487 36.268H163.571V26.832H166.931V48H163.739V45.984ZM155.787 41.28C155.787 41.8027 155.871 42.3067 156.039 42.792C156.226 43.2773 156.487 43.7067 156.823 44.08C157.178 44.4533 157.598 44.752 158.083 44.976C158.569 45.2 159.119 45.312 159.735 45.312C160.351 45.312 160.902 45.2 161.387 44.976C161.873 44.752 162.283 44.4533 162.619 44.08C162.974 43.7067 163.235 43.2773 163.403 42.792C163.59 42.3067 163.683 41.8027 163.683 41.28C163.683 40.7573 163.59 40.2533 163.403 39.768C163.235 39.2827 162.974 38.8533 162.619 38.48C162.283 38.1067 161.873 37.808 161.387 37.584C160.902 37.36 160.351 37.248 159.735 37.248C159.119 37.248 158.569 37.36 158.083 37.584C157.598 37.808 157.178 38.1067 156.823 38.48C156.487 38.8533 156.226 39.2827 156.039 39.768C155.871 40.2533 155.787 40.7573 155.787 41.28ZM179.136 46.152H179.052C178.567 46.936 177.951 47.496 177.204 47.832C176.457 48.168 175.636 48.336 174.74 48.336C174.124 48.336 173.517 48.252 172.92 48.084C172.341 47.916 171.819 47.664 171.352 47.328C170.904 46.992 170.54 46.572 170.26 46.068C169.98 45.564 169.84 44.976 169.84 44.304C169.84 43.576 169.971 42.96 170.232 42.456C170.493 41.9333 170.839 41.504 171.268 41.168C171.716 40.8133 172.229 40.5333 172.808 40.328C173.387 40.1227 173.984 39.9733 174.6 39.88C175.235 39.768 175.869 39.7027 176.504 39.684C177.139 39.6467 177.736 39.628 178.296 39.628H179.136V39.264C179.136 38.424 178.847 37.7987 178.268 37.388C177.689 36.9587 176.952 36.744 176.056 36.744C175.347 36.744 174.684 36.8747 174.068 37.136C173.452 37.3787 172.92 37.7147 172.472 38.144L170.708 36.38C171.455 35.596 172.323 35.0453 173.312 34.728C174.32 34.392 175.356 34.224 176.42 34.224C177.372 34.224 178.175 34.336 178.828 34.56C179.481 34.7653 180.023 35.036 180.452 35.372C180.881 35.708 181.208 36.1 181.432 36.548C181.675 36.9773 181.843 37.416 181.936 37.864C182.048 38.312 182.113 38.7507 182.132 39.18C182.151 39.5907 182.16 39.9547 182.16 40.272V48H179.136V46.152ZM178.94 41.98H178.24C177.773 41.98 177.251 41.9987 176.672 42.036C176.093 42.0733 175.543 42.1667 175.02 42.316C174.516 42.4467 174.087 42.652 173.732 42.932C173.377 43.212 173.2 43.5853 173.2 44.052C173.2 44.3693 173.265 44.64 173.396 44.864C173.545 45.0693 173.732 45.2467 173.956 45.396C174.18 45.5453 174.432 45.6573 174.712 45.732C174.992 45.788 175.272 45.816 175.552 45.816C176.728 45.816 177.587 45.5453 178.128 45.004C178.669 44.444 178.94 43.688 178.94 42.736V41.98ZM199.607 34.56V46.796C199.607 48.0093 199.458 49.1013 199.159 50.072C198.86 51.0613 198.394 51.892 197.759 52.564C197.143 53.2547 196.359 53.7867 195.407 54.16C194.455 54.5333 193.326 54.72 192.019 54.72C190.768 54.72 189.583 54.5613 188.463 54.244C187.343 53.9267 186.307 53.348 185.355 52.508L187.371 49.764C188.043 50.38 188.743 50.856 189.471 51.192C190.199 51.528 191.039 51.696 191.991 51.696C192.794 51.696 193.466 51.584 194.007 51.36C194.567 51.136 195.006 50.828 195.323 50.436C195.659 50.044 195.892 49.568 196.023 49.008C196.172 48.4667 196.247 47.86 196.247 47.188V46.208H196.191C195.706 46.8613 195.062 47.356 194.259 47.692C193.456 48.0093 192.635 48.168 191.795 48.168C190.787 48.168 189.872 47.9907 189.051 47.636C188.23 47.2627 187.52 46.768 186.923 46.152C186.344 45.536 185.896 44.808 185.579 43.968C185.262 43.128 185.103 42.232 185.103 41.28C185.103 40.2907 185.252 39.3667 185.551 38.508C185.85 37.6493 186.288 36.9027 186.867 36.268C187.446 35.6333 188.136 35.1387 188.939 34.784C189.76 34.4107 190.694 34.224 191.739 34.224C192.691 34.224 193.578 34.4107 194.399 34.784C195.22 35.1387 195.874 35.736 196.359 36.576H196.415V34.56H199.607ZM192.439 37.248C191.842 37.248 191.3 37.3507 190.815 37.556C190.33 37.7427 189.91 38.0133 189.555 38.368C189.219 38.704 188.948 39.124 188.743 39.628C188.556 40.1133 188.463 40.6547 188.463 41.252C188.463 41.7933 188.556 42.2973 188.743 42.764C188.948 43.2307 189.228 43.6413 189.583 43.996C189.938 44.3507 190.358 44.6307 190.843 44.836C191.328 45.0413 191.851 45.144 192.411 45.144C193.027 45.144 193.578 45.0413 194.063 44.836C194.567 44.6307 194.987 44.36 195.323 44.024C195.678 43.6693 195.948 43.2493 196.135 42.764C196.322 42.2787 196.415 41.756 196.415 41.196C196.415 40.02 196.06 39.068 195.351 38.34C194.642 37.612 193.671 37.248 192.439 37.248ZM202.74 41.28C202.74 40.216 202.926 39.2547 203.3 38.396C203.692 37.5187 204.214 36.772 204.868 36.156C205.521 35.54 206.296 35.064 207.192 34.728C208.088 34.392 209.04 34.224 210.048 34.224C211.056 34.224 212.008 34.392 212.904 34.728C213.8 35.064 214.574 35.54 215.228 36.156C215.881 36.772 216.394 37.5187 216.768 38.396C217.16 39.2547 217.356 40.216 217.356 41.28C217.356 42.344 217.16 43.3147 216.768 44.192C216.394 45.0507 215.881 45.788 215.228 46.404C214.574 47.02 213.8 47.496 212.904 47.832C212.008 48.168 211.056 48.336 210.048 48.336C209.04 48.336 208.088 48.168 207.192 47.832C206.296 47.496 205.521 47.02 204.868 46.404C204.214 45.788 203.692 45.0507 203.3 44.192C202.926 43.3147 202.74 42.344 202.74 41.28ZM206.1 41.28C206.1 41.8027 206.184 42.3067 206.352 42.792C206.538 43.2773 206.8 43.7067 207.136 44.08C207.49 44.4533 207.91 44.752 208.396 44.976C208.881 45.2 209.432 45.312 210.048 45.312C210.664 45.312 211.214 45.2 211.7 44.976C212.185 44.752 212.596 44.4533 212.932 44.08C213.286 43.7067 213.548 43.2773 213.716 42.792C213.902 42.3067 213.996 41.8027 213.996 41.28C213.996 40.7573 213.902 40.2533 213.716 39.768C213.548 39.2827 213.286 38.8533 212.932 38.48C212.596 38.1067 212.185 37.808 211.7 37.584C211.214 37.36 210.664 37.248 210.048 37.248C209.432 37.248 208.881 37.36 208.396 37.584C207.91 37.808 207.49 38.1067 207.136 38.48C206.8 38.8533 206.538 39.2827 206.352 39.768C206.184 40.2533 206.1 40.7573 206.1 41.28ZM241.418 32.824C240.69 32.04 239.98 31.5173 239.29 31.256C238.618 30.9947 237.936 30.864 237.246 30.864C236.219 30.864 235.286 31.0507 234.446 31.424C233.624 31.7787 232.915 32.2827 232.318 32.936C231.72 33.5707 231.254 34.3173 230.918 35.176C230.6 36.0347 230.442 36.9587 230.442 37.948C230.442 39.012 230.6 39.992 230.918 40.888C231.254 41.784 231.72 42.5587 232.318 43.212C232.915 43.8653 233.624 44.3787 234.446 44.752C235.286 45.1253 236.219 45.312 237.246 45.312C238.048 45.312 238.823 45.1253 239.57 44.752C240.335 44.36 241.044 43.744 241.698 42.904L244.61 44.976C243.714 46.208 242.622 47.104 241.334 47.664C240.046 48.224 238.674 48.504 237.218 48.504C235.687 48.504 234.278 48.2613 232.99 47.776C231.72 47.272 230.619 46.572 229.686 45.676C228.771 44.7613 228.052 43.6693 227.53 42.4C227.007 41.1307 226.746 39.7213 226.746 38.172C226.746 36.5853 227.007 35.148 227.53 33.86C228.052 32.5533 228.771 31.4427 229.686 30.528C230.619 29.6133 231.72 28.9133 232.99 28.428C234.278 27.924 235.687 27.672 237.218 27.672C238.562 27.672 239.803 27.9147 240.942 28.4C242.08 28.8667 243.154 29.6693 244.162 30.808L241.418 32.824ZM245.998 41.28C245.998 40.216 246.184 39.2547 246.558 38.396C246.95 37.5187 247.472 36.772 248.126 36.156C248.779 35.54 249.554 35.064 250.45 34.728C251.346 34.392 252.298 34.224 253.306 34.224C254.314 34.224 255.266 34.392 256.162 34.728C257.058 35.064 257.832 35.54 258.486 36.156C259.139 36.772 259.652 37.5187 260.026 38.396C260.418 39.2547 260.614 40.216 260.614 41.28C260.614 42.344 260.418 43.3147 260.026 44.192C259.652 45.0507 259.139 45.788 258.486 46.404C257.832 47.02 257.058 47.496 256.162 47.832C255.266 48.168 254.314 48.336 253.306 48.336C252.298 48.336 251.346 48.168 250.45 47.832C249.554 47.496 248.779 47.02 248.126 46.404C247.472 45.788 246.95 45.0507 246.558 44.192C246.184 43.3147 245.998 42.344 245.998 41.28ZM249.358 41.28C249.358 41.8027 249.442 42.3067 249.61 42.792C249.796 43.2773 250.058 43.7067 250.394 44.08C250.748 44.4533 251.168 44.752 251.654 44.976C252.139 45.2 252.69 45.312 253.306 45.312C253.922 45.312 254.472 45.2 254.958 44.976C255.443 44.752 255.854 44.4533 256.19 44.08C256.544 43.7067 256.806 43.2773 256.974 42.792C257.16 42.3067 257.254 41.8027 257.254 41.28C257.254 40.7573 257.16 40.2533 256.974 39.768C256.806 39.2827 256.544 38.8533 256.19 38.48C255.854 38.1067 255.443 37.808 254.958 37.584C254.472 37.36 253.922 37.248 253.306 37.248C252.69 37.248 252.139 37.36 251.654 37.584C251.168 37.808 250.748 38.1067 250.394 38.48C250.058 38.8533 249.796 39.2827 249.61 39.768C249.442 40.2533 249.358 40.7573 249.358 41.28ZM263.759 34.56H266.951V36.716H267.007C267.325 36.044 267.81 35.4653 268.463 34.98C269.117 34.476 270.003 34.224 271.123 34.224C272.019 34.224 272.775 34.3733 273.391 34.672C274.026 34.9707 274.539 35.3627 274.931 35.848C275.323 36.3333 275.603 36.8933 275.771 37.528C275.939 38.1627 276.023 38.8253 276.023 39.516V48H272.663V41.196C272.663 40.8227 272.645 40.412 272.607 39.964C272.57 39.4973 272.467 39.068 272.299 38.676C272.15 38.2653 271.907 37.9293 271.571 37.668C271.235 37.388 270.778 37.248 270.199 37.248C269.639 37.248 269.163 37.3413 268.771 37.528C268.398 37.7147 268.081 37.9667 267.819 38.284C267.577 38.6013 267.399 38.9653 267.287 39.376C267.175 39.7867 267.119 40.216 267.119 40.664V48H263.759V34.56ZM287.006 38.284C286.371 37.3693 285.494 36.912 284.374 36.912C283.926 36.912 283.487 37.024 283.058 37.248C282.628 37.472 282.414 37.836 282.414 38.34C282.414 38.7507 282.591 39.0493 282.946 39.236C283.3 39.4227 283.748 39.5813 284.29 39.712C284.831 39.8427 285.41 39.9827 286.026 40.132C286.66 40.2627 287.248 40.4773 287.79 40.776C288.331 41.056 288.779 41.448 289.134 41.952C289.488 42.456 289.666 43.1467 289.666 44.024C289.666 44.8267 289.488 45.508 289.134 46.068C288.798 46.6093 288.35 47.048 287.79 47.384C287.248 47.72 286.632 47.9627 285.942 48.112C285.251 48.2613 284.56 48.336 283.87 48.336C282.806 48.336 281.835 48.1867 280.958 47.888C280.099 47.5893 279.324 47.048 278.634 46.264L280.874 44.164C281.303 44.6493 281.76 45.0507 282.246 45.368C282.75 45.6667 283.356 45.816 284.066 45.816C284.308 45.816 284.56 45.788 284.822 45.732C285.083 45.676 285.326 45.5827 285.55 45.452C285.774 45.3213 285.951 45.1627 286.082 44.976C286.231 44.7707 286.306 44.5373 286.306 44.276C286.306 43.8093 286.128 43.464 285.774 43.24C285.419 43.016 284.971 42.8387 284.43 42.708C283.888 42.5587 283.3 42.428 282.666 42.316C282.05 42.1853 281.471 41.9893 280.93 41.728C280.388 41.448 279.94 41.0653 279.586 40.58C279.231 40.0947 279.054 39.4227 279.054 38.564C279.054 37.8173 279.203 37.1733 279.502 36.632C279.819 36.072 280.23 35.6147 280.734 35.26C281.238 34.9053 281.816 34.644 282.47 34.476C283.123 34.308 283.786 34.224 284.458 34.224C285.354 34.224 286.24 34.3827 287.118 34.7C287.995 34.9987 288.704 35.5213 289.246 36.268L287.006 38.284ZM304.543 48H301.351V45.844H301.295C300.978 46.516 300.492 47.104 299.839 47.608C299.186 48.0933 298.299 48.336 297.179 48.336C296.283 48.336 295.518 48.196 294.883 47.916C294.267 47.6173 293.763 47.2253 293.371 46.74C292.979 46.236 292.699 45.6667 292.531 45.032C292.363 44.3973 292.279 43.7347 292.279 43.044V34.56H295.639V41.364C295.639 41.7373 295.658 42.1573 295.695 42.624C295.732 43.072 295.826 43.5013 295.975 43.912C296.143 44.304 296.386 44.64 296.703 44.92C297.039 45.1813 297.506 45.312 298.103 45.312C298.663 45.312 299.13 45.2187 299.503 45.032C299.895 44.8453 300.212 44.5933 300.455 44.276C300.716 43.9587 300.903 43.5947 301.015 43.184C301.127 42.7733 301.183 42.344 301.183 41.896V34.56H304.543V48ZM308.413 26.832H311.773V48H308.413V26.832ZM314.063 37.416V34.56H316.835V30.668H320.195V34.56H323.891V37.416H320.195V43.296C320.195 43.968 320.316 44.5 320.559 44.892C320.82 45.284 321.324 45.48 322.071 45.48C322.369 45.48 322.696 45.452 323.051 45.396C323.405 45.3213 323.685 45.2093 323.891 45.06V47.888C323.536 48.056 323.097 48.168 322.575 48.224C322.071 48.2987 321.623 48.336 321.231 48.336C320.335 48.336 319.597 48.2333 319.019 48.028C318.459 47.8413 318.011 47.552 317.675 47.16C317.357 46.7493 317.133 46.2453 317.003 45.648C316.891 45.0507 316.835 44.36 316.835 43.576V37.416H314.063ZM326.569 34.56H329.929V48H326.569V34.56ZM326.093 29.996C326.093 29.4547 326.289 28.988 326.681 28.596C327.092 28.1853 327.605 27.98 328.221 27.98C328.837 27.98 329.351 28.176 329.761 28.568C330.191 28.9413 330.405 29.4173 330.405 29.996C330.405 30.5747 330.191 31.06 329.761 31.452C329.351 31.8253 328.837 32.012 328.221 32.012C327.605 32.012 327.092 31.816 326.681 31.424C326.289 31.0133 326.093 30.5373 326.093 29.996ZM333.787 34.56H336.979V36.716H337.035C337.352 36.044 337.837 35.4653 338.491 34.98C339.144 34.476 340.031 34.224 341.151 34.224C342.047 34.224 342.803 34.3733 343.419 34.672C344.053 34.9707 344.567 35.3627 344.959 35.848C345.351 36.3333 345.631 36.8933 345.799 37.528C345.967 38.1627 346.051 38.8253 346.051 39.516V48H342.691V41.196C342.691 40.8227 342.672 40.412 342.635 39.964C342.597 39.4973 342.495 39.068 342.327 38.676C342.177 38.2653 341.935 37.9293 341.599 37.668C341.263 37.388 340.805 37.248 340.227 37.248C339.667 37.248 339.191 37.3413 338.799 37.528C338.425 37.7147 338.108 37.9667 337.847 38.284C337.604 38.6013 337.427 38.9653 337.315 39.376C337.203 39.7867 337.147 40.216 337.147 40.664V48H333.787V34.56ZM363.697 34.56V46.796C363.697 48.0093 363.548 49.1013 363.249 50.072C362.95 51.0613 362.484 51.892 361.849 52.564C361.233 53.2547 360.449 53.7867 359.497 54.16C358.545 54.5333 357.416 54.72 356.109 54.72C354.858 54.72 353.673 54.5613 352.553 54.244C351.433 53.9267 350.397 53.348 349.445 52.508L351.461 49.764C352.133 50.38 352.833 50.856 353.561 51.192C354.289 51.528 355.129 51.696 356.081 51.696C356.884 51.696 357.556 51.584 358.097 51.36C358.657 51.136 359.096 50.828 359.413 50.436C359.749 50.044 359.982 49.568 360.113 49.008C360.262 48.4667 360.337 47.86 360.337 47.188V46.208H360.281C359.796 46.8613 359.152 47.356 358.349 47.692C357.546 48.0093 356.725 48.168 355.885 48.168C354.877 48.168 353.962 47.9907 353.141 47.636C352.32 47.2627 351.61 46.768 351.013 46.152C350.434 45.536 349.986 44.808 349.669 43.968C349.352 43.128 349.193 42.232 349.193 41.28C349.193 40.2907 349.342 39.3667 349.641 38.508C349.94 37.6493 350.378 36.9027 350.957 36.268C351.536 35.6333 352.226 35.1387 353.029 34.784C353.85 34.4107 354.784 34.224 355.829 34.224C356.781 34.224 357.668 34.4107 358.489 34.784C359.31 35.1387 359.964 35.736 360.449 36.576H360.505V34.56H363.697ZM356.529 37.248C355.932 37.248 355.39 37.3507 354.905 37.556C354.42 37.7427 354 38.0133 353.645 38.368C353.309 38.704 353.038 39.124 352.833 39.628C352.646 40.1133 352.553 40.6547 352.553 41.252C352.553 41.7933 352.646 42.2973 352.833 42.764C353.038 43.2307 353.318 43.6413 353.673 43.996C354.028 44.3507 354.448 44.6307 354.933 44.836C355.418 45.0413 355.941 45.144 356.501 45.144C357.117 45.144 357.668 45.0413 358.153 44.836C358.657 44.6307 359.077 44.36 359.413 44.024C359.768 43.6693 360.038 43.2493 360.225 42.764C360.412 42.2787 360.505 41.756 360.505 41.196C360.505 40.02 360.15 39.068 359.441 38.34C358.732 37.612 357.761 37.248 356.529 37.248Z" fill="black"/>
<path d="M24.02 40.45C26.5933 36.9833 29.74 36.2267 33.46 38.18C33.7867 38.3467 34.0767 38.3033 34.33 38.05L41.7 30.71C41.8205 30.5891 41.9012 30.4344 41.9316 30.2665C41.962 30.0986 41.9405 29.9254 41.87 29.77C41.3233 28.5967 41.2933 27.41 41.78 26.21C41.841 26.0571 41.8407 25.8866 41.7793 25.7339C41.7178 25.5812 41.5999 25.458 41.45 25.39L27.91 19.36C27.5767 19.2133 27.2733 19.2567 27 19.49C22.28 23.47 16.92 16.74 21.3 13.07C24.34 10.51 28.02 12.85 28.29 16.53C28.3167 16.93 28.5133 17.2133 28.88 17.38L43.22 23.83C43.3751 23.9015 43.5445 23.936 43.7146 23.9308C43.8847 23.9256 44.0509 23.8808 44.2 23.8C44.86 23.4533 45.55 23.2867 46.27 23.3C46.6633 23.3067 46.9433 23.1333 47.11 22.78L52.37 11.63C52.5433 11.25 52.5367 10.8767 52.35 10.51C50.17 6.22 57.21 4.02 57.67 9.22C57.6889 9.4284 57.7501 9.63076 57.8498 9.81472C57.9495 9.99869 58.0857 10.1604 58.25 10.29L68.63 18.59C68.8967 18.8033 69.19 18.8567 69.51 18.75C70.31 18.47 71.06 17.97 71.96 18.18C74.2 18.7067 75.2967 20.1233 75.25 22.43C75.2367 22.8367 75.4067 23.14 75.76 23.34L87.5 30.23C87.676 30.3328 87.88 30.3783 88.084 30.3604C88.288 30.3425 88.4822 30.2621 88.64 30.13L97.66 22.42C98.0267 22.1067 98.1633 21.7167 98.07 21.25C97.8967 20.3233 98.0867 19.5067 98.64 18.8C100.24 16.7533 101.98 16.5667 103.86 18.24C104.96 19.2133 105.267 20.3467 104.78 21.64C103.993 23.7467 102.43 24.4933 100.09 23.88C99.6633 23.7667 99.28 23.8533 98.94 24.14L90.11 31.69C89.81 31.9433 89.7733 32.2267 90 32.54L99.99 46.56C100.197 46.8509 100.501 47.0627 100.85 47.16C102.137 47.5067 102.667 48.3133 102.44 49.58C102.378 49.9262 102.215 50.2459 101.973 50.4986C101.731 50.7514 101.42 50.9258 101.08 51C100.3 51.1733 99.6366 51.0167 99.09 50.53C98.14 49.68 98.79 48.56 98.08 47.59C95.08 43.4367 91.9733 39.0667 88.76 34.48C87.8867 33.24 86.7733 32.23 85.42 31.45C81.76 29.35 78.25 27.2867 74.89 25.26C74.6701 25.1271 74.4189 25.055 74.162 25.0511C73.9051 25.0472 73.6518 25.1116 73.428 25.2378C73.2042 25.3639 73.0179 25.5473 72.8883 25.7691C72.7586 25.9908 72.6902 26.2431 72.69 26.5L72.72 42.75C72.72 43.1567 72.91 43.4333 73.29 43.58C76.8433 44.9533 77.9733 47.7033 76.68 51.83C76.6351 51.97 76.632 52.1206 76.671 52.2641C76.7099 52.4076 76.7894 52.538 76.9 52.64L82.52 57.92C82.8066 58.1867 83.14 58.28 83.52 58.2C84.61 57.97 85.93 57.69 86.86 58.46C89.54 60.64 87.68 64.81 84.21 63.91C82.7967 63.5367 82.06 62.5467 82 60.94C81.9867 60.5333 81.8333 60.1933 81.54 59.92L75.45 54.27C75.1166 53.9633 74.75 53.9133 74.35 54.12C71.4233 55.6333 68.8567 55.02 66.65 52.28C66.41 51.9867 66.1067 51.8967 65.74 52.01C61.12 53.4833 56.4067 54.9333 51.6 56.36C50.37 56.73 50.14 57.62 49.49 58.55C48.45 60.03 46.37 60.5 44.72 59.98C42.2267 59.1867 41.15 57.3467 41.49 54.46C41.511 54.266 41.4803 54.0703 41.4013 53.8928C41.3222 53.7153 41.1975 53.5625 41.04 53.45L35.2 49.31C34.8933 49.0833 34.59 49.0933 34.29 49.34C32.2433 51.0267 29.9533 51.4467 27.42 50.6C27.2472 50.542 27.0606 50.542 26.8889 50.5998C26.7172 50.6577 26.57 50.7702 26.47 50.92L21.19 58.7C21.0841 58.8559 21.0155 59.0343 20.9895 59.2215C20.9635 59.4088 20.9808 59.5998 21.04 59.78C22.45 63.97 15.17 64.2 16.05 60.02C16.31 58.7667 17.0933 58.0867 18.4 57.98C18.9 57.9333 19.2867 57.7067 19.56 57.3L24.78 49.53C24.9933 49.2033 24.97 48.8967 24.71 48.61C23.41 47.1767 22.8467 45.5067 23.02 43.6C23.0533 43.1867 22.8833 42.8967 22.51 42.73L11.87 37.9C11.5167 37.7467 11.1833 37.78 10.87 38C7.69999 40.22 3.84999 37.19 5.45999 33.7C6.99999 30.38 11.97 31.39 12.22 35.13C12.2467 35.5167 12.4367 35.79 12.79 35.95L23.25 40.65C23.5633 40.79 23.82 40.7233 24.02 40.45ZM70.19 25.75C68.36 24.19 67.6 24.01 67.73 21.23C67.7395 21.0386 67.7027 20.8477 67.6226 20.6736C67.5425 20.4995 67.4215 20.3473 67.27 20.23L56.96 12.09C56.7471 11.9223 56.4991 11.8048 56.2347 11.7464C55.9703 11.688 55.6963 11.6902 55.4334 11.7527C55.1705 11.8153 54.9256 11.9367 54.7171 12.1077C54.5087 12.2787 54.3421 12.4949 54.23 12.74L49.12 23.77C48.9667 24.1033 49.0133 24.41 49.26 24.69C49.9933 25.51 50.47 26.4933 50.69 27.64C50.77 28.06 50.9733 28.4067 51.3 28.68L68.49 43.5C68.6773 43.6607 68.9068 43.7643 69.1513 43.7985C69.3958 43.8327 69.6449 43.7961 69.8692 43.6929C70.0934 43.5897 70.2834 43.4244 70.4164 43.2165C70.5495 43.0086 70.6202 42.7668 70.62 42.52V26.68C70.6202 26.5018 70.5818 26.3262 70.5075 26.1655C70.4332 26.0049 70.3248 25.863 70.19 25.75ZM51.04 54.29L65.04 49.95C65.5067 49.8033 65.7433 49.4833 65.75 48.99C65.7567 47.9167 66.09 46.8733 66.75 45.86C66.99 45.4933 66.9433 45.1667 66.61 44.88L50.2 30.66C50.1659 30.6299 50.1262 30.6067 50.0834 30.5919C50.0405 30.577 49.9954 30.5708 49.9506 30.5736C49.9058 30.5764 49.8624 30.5882 49.8227 30.6082C49.7831 30.6281 49.7482 30.656 49.72 30.69C48.18 32.4633 46.38 32.94 44.32 32.12C43.88 31.9467 43.4933 32.0267 43.16 32.36L36.02 39.54C35.6667 39.8933 35.6167 40.2867 35.87 40.72C36.97 42.62 37.1267 44.5167 36.34 46.41C36.1467 46.8833 36.2567 47.2667 36.67 47.56L42.55 51.76C42.85 51.9733 43.16 51.99 43.48 51.81C46.3467 50.1967 48.63 50.9267 50.33 54C50.49 54.2867 50.7267 54.3833 51.04 54.29Z" fill="url(#paint0_linear_2_12)"/>
<defs>
<linearGradient id="paint0_linear_2_12" x1="55.0426" y1="6.18976" x2="55.0426" y2="64.0353" gradientUnits="userSpaceOnUse">
<stop stop-color="#FFB800"/>
<stop offset="1" stop-color="#FF5C00"/>
</linearGradient>
</defs>
</svg>
